<svg xmlns="http://www.w3.org/2000/svg" viewBox="0 0 1550 170">
	<path
	  fill="#ffffd9"
	  d="M23.34-14.1q0 3.06-2.18 5.28-2.21 2.18-5.27 2.18V0q5.84 0 9.95-4.15 4.15-4.11 4.15-9.95 0-5.87-4.15-9.98-4.11-4.15-9.95-4.15-5.87 0-9.98 4.15-4.15 4.11-4.15 9.98v34.03H8.4V-14.1q0-3.09 2.18-5.31 2.22-2.18 5.31-2.18 3.06 0 5.27 2.18 2.18 2.22 2.18 5.31zM40.15 0v-14.13q0-3.06 2.18-5.28 2.21-2.18 5.31-2.18 3.06 0 5.27 2.18 2.18 2.22 2.18 5.28V0h6.64v-14.13q0-5.84-4.14-9.95-4.12-4.15-9.95-4.15-5.87 0-9.99 4.15-4.15 4.11-4.15 9.95V0h6.65zm39.23-28.23q-5.87 0-9.98 4.15-4.15 4.11-4.15 9.95 0 5.62 3.87 9.7 3.86 4.08 9.42 4.39V0h.84v-6.64q-3.09 0-5.31-2.18-2.18-2.22-2.18-5.31 0-3.06 2.18-5.28 2.22-2.18 5.31-2.18 4.61 0 6.68 4.15h-5.87v6.65h13.29v-3.34q0-5.84-4.15-9.95-4.11-4.15-9.95-4.15z"
	  transform="translate(0 -150) translate(77.283 244.532) scale(1.0903)"
	/>
	<path
	  fill="#6d985c"
	  d="M25.49-50.4q5.69 0 9.61 2.52t5.87 6.73q1.94 4.21 1.94 9.18t-1.94 9.18q-1.95 4.21-5.87 6.73t-9.61 2.52H13.54V0H5.76v-50.4h19.73zm-.22 29.38q2.59 0 4.79-1.34 2.2-1.33 3.53-3.81 1.33-2.49 1.33-5.8t-1.33-5.79q-1.33-2.49-3.53-3.82t-4.79-1.33H13.54v21.89h11.73zM76.39.72q-7.05 0-13.03-3.46-5.98-3.45-9.47-9.43-3.49-5.97-3.49-13.03t3.49-13.03q3.49-5.98 9.47-9.43 5.98-3.46 13.03-3.46 7.06 0 13.03 3.46 5.98 3.45 9.47 9.43 3.49 5.97 3.49 13.03t-3.49 13.03q-3.49 5.98-9.47 9.43Q83.45.72 76.39.72zm0-7.49q5.11 0 9.22-2.41 4.1-2.41 6.41-6.59 2.3-4.17 2.3-9.43t-2.3-9.43q-2.31-4.18-6.41-6.59-4.11-2.41-9.22-2.41t-9.21 2.41q-4.11 2.41-6.41 6.59-2.31 4.17-2.31 9.43t2.31 9.43q2.3 4.18 6.41 6.59 4.1 2.41 9.21 2.41zm43.27-.72h20.52l-.5 7.49h-27.79v-50.4h7.77v42.91zM147.38 0v-50.4h7.78V0h-7.78zm17.28-25.2q0-7.13 3.46-13.07t9.4-9.39q5.94-3.46 13.06-3.46 9 0 16.92 5.76l-3.96 6.12q-3.16-2.3-6.26-3.38t-6.7-1.08q-4.96 0-9.1 2.44-4.14 2.45-6.56 6.7-2.41 4.25-2.41 9.36t2.41 9.36q2.42 4.25 6.56 6.7 4.14 2.44 9.1 2.44 8.07 0 12.96-4.82l4.04 5.98q-3.24 2.95-7.71 4.6-4.46 1.66-9.29 1.66-7.12 0-13.06-3.46-5.94-3.45-9.4-9.39t-3.46-13.07zm96.99 0v2.3h-39.53q.65 7.2 5.04 11.7t12.46 4.5q4.46 0 8.35-1.87t6.48-4.82l4.97 4.97q-3.32 3.88-8.36 6.51T239.62.72q-8.07 0-13.79-3.42-5.73-3.42-8.68-9.29T214.2-25.2q0-7.13 3.28-13.07 3.27-5.94 8.89-9.39 5.61-3.46 12.31-3.46 6.98 0 12.2 3.42t8 9.32q2.77 5.91 2.77 13.18zm-22.97-18.5q-5.69 0-10.12 3.81-4.42 3.82-5.94 9.72h30.96q-1.15-6.12-5.04-9.83-3.88-3.7-9.86-3.7zm90.72-6.7h7.78V.72h-.87l-32.9-33.05V0h-7.78v-51.12h.87l32.9 33.05V-50.4zm64.73 25.2v2.3H354.6q.65 7.2 5.04 11.7t12.46 4.5q4.46 0 8.35-1.87t6.48-4.82l4.97 4.97q-3.32 3.88-8.36 6.51T372.1.72q-8.07 0-13.79-3.42-5.73-3.42-8.68-9.29t-2.95-13.21q0-7.13 3.28-13.07 3.27-5.94 8.89-9.39 5.61-3.46 12.31-3.46 6.98 0 12.2 3.42t8 9.32q2.77 5.91 2.77 13.18zm-22.97-18.5q-5.69 0-10.12 3.81-4.42 3.82-5.94 9.72h30.96q-1.15-6.12-5.04-9.83-3.88-3.7-9.86-3.7zM403.63 0v-50.4h7.78V0h-7.78zm61.2-29.23v24.69q-3.38 2.52-7.52 3.89T447.19.72q-7.77 0-13.75-3.46-5.98-3.45-9.25-9.36-3.28-5.9-3.28-13.1 0-7.13 3.35-13.07t9.29-9.39q5.94-3.46 13.43-3.46 9.5 0 17.42 6.05l-4.1 5.9q-5.69-4.46-13.32-4.46-4.97 0-9.08 2.3-4.1 2.31-6.44 6.52t-2.34 9.61q0 5.47 2.23 9.65 2.23 4.17 6.34 6.44 4.1 2.27 9.5 2.27t9.87-1.87v-12.96h-8.86l.5-7.56h16.13zm41.26-21.17h7.77V0h-7.77v-22.54h-22.68V0h-7.78v-50.4h7.78v20.38h22.68V-50.4zm47.66 18.79q4.39 2.02 6.81 6.01 2.41 4 2.41 9.18 0 7.2-4.11 11.7-4.1 4.5-13.89 4.72h-19.59v-50.4h20.45q4.11 0 6.66 1.76 2.56 1.77 3.64 4.25 1.08 2.49 1.08 4.93 0 2.38-1.01 4.25t-2.45 3.6zm-20.59-11.73v10h10.37q5.97 0 5.97-5.11 0-1.8-1.22-3.35-1.22-1.54-3.53-1.54h-11.59zm11.23 35.85q5.4 0 7.99-2.34 2.6-2.34 2.6-6.59 0-4.89-2.74-7.7t-7.99-2.81h-11.09v19.44h11.23zM595.58.72q-7.05 0-13.03-3.46-5.97-3.45-9.47-9.43-3.49-5.97-3.49-13.03t3.49-13.03q3.5-5.98 9.47-9.43 5.98-3.46 13.03-3.46 7.06 0 13.04 3.46 5.97 3.45 9.46 9.43 3.5 5.97 3.5 13.03t-3.5 13.03q-3.49 5.98-9.46 9.43Q602.64.72 595.58.72zm0-7.49q5.12 0 9.22-2.41t6.41-6.59q2.3-4.17 2.3-9.43t-2.3-9.43q-2.31-4.18-6.41-6.59t-9.22-2.41q-5.11 0-9.21 2.41-4.11 2.41-6.41 6.59-2.3 4.17-2.3 9.43t2.3 9.43q2.3 4.18 6.41 6.59 4.1 2.41 9.21 2.41zm67.47-43.63h7.63V0h-7.63v-5.04Q658.8.72 649.87.72q-5.83 0-10.19-2.38-4.35-2.37-6.66-6.66-2.3-4.28-2.3-10.04V-50.4h7.63v29.88q0 6.48 3.17 10.22 3.17 3.75 8.35 3.75 3.03 0 6.05-1.23Q658.94-9 661-11.7q2.05-2.7 2.05-6.8v-31.9zm38.52-.72q5.83 0 11.23 3.82l-3.82 5.9q-2.01-1.22-3.78-1.76-1.76-.54-3.7-.54-5.55 0-8.57 4.46-3.03 4.46-3.03 12.6V0h-7.7v-50.4h7.7v5.04q4.32-5.76 11.67-5.76zm48.53.72h7.77V0h-7.77v-22.54h-22.68V0h-7.78v-50.4h7.78v20.38h22.68V-50.4zM793.37.72q-7.06 0-13.03-3.46-5.98-3.45-9.47-9.43-3.49-5.97-3.49-13.03t3.49-13.03q3.49-5.98 9.47-9.43 5.97-3.46 13.03-3.46 7.05 0 13.03 3.46 5.98 3.45 9.47 9.43 3.49 5.97 3.49 13.03t-3.49 13.03q-3.49 5.98-9.47 9.43Q800.42.72 793.37.72zm0-7.49q5.11 0 9.21-2.41 4.11-2.41 6.41-6.59 2.31-4.17 2.31-9.43t-2.31-9.43q-2.3-4.18-6.41-6.59-4.1-2.41-9.21-2.41t-9.22 2.41q-4.1 2.41-6.41 6.59-2.3 4.17-2.3 9.43t2.3 9.43q2.31 4.18 6.41 6.59 4.11 2.41 9.22 2.41zM852.84.72q-7.06 0-13.03-3.46-5.98-3.45-9.47-9.43-3.49-5.97-3.49-13.03t3.49-13.03q3.49-5.98 9.47-9.43 5.97-3.46 13.03-3.46t13.03 3.46q5.98 3.45 9.47 9.43 3.49 5.97 3.49 13.03t-3.49 13.03q-3.49 5.98-9.47 9.43Q859.9.72 852.84.72zm0-7.49q5.11 0 9.22-2.41 4.1-2.41 6.4-6.59 2.31-4.17 2.31-9.43t-2.31-9.43q-2.3-4.18-6.4-6.59-4.11-2.41-9.22-2.41t-9.22 2.41q-4.1 2.41-6.4 6.59-2.31 4.17-2.31 9.43t2.31 9.43q2.3 4.18 6.4 6.59 4.11 2.41 9.22 2.41zm52.99-43.63q8.14 0 13.97 3.13t8.89 8.82 3.06 13.25-3.06 13.25-8.89 8.82T905.83 0h-17.49v-50.4h17.49zm.51 42.91q8.2 0 12.88-4.71 4.68-4.72 4.68-13t-4.68-13q-4.68-4.71-12.88-4.71h-10.23v35.42h10.23zm89.78 0l.5 7.49h-30.88v-50.4h29.44l.58 7.49h-22.25v10.73h14.69v7.48h-14.69v17.21h22.61zm44.93-42.91l-15.27 25.2L1041.05 0h-9.15l-10.72-17.64L1010.45 0h-9.15l15.34-25.2-15.34-25.2h9.15l10.73 17.64 10.72-17.64h9.15zm27.29 0q5.68 0 9.61 2.52 3.92 2.52 5.87 6.73 1.94 4.21 1.94 9.18t-1.94 9.18q-1.95 4.21-5.87 6.73-3.93 2.52-9.61 2.52h-11.96V0h-7.77v-50.4h19.73zm-.22 29.38q2.59 0 4.79-1.34 2.19-1.33 3.53-3.81 1.33-2.49 1.33-5.8t-1.33-5.79q-1.34-2.49-3.53-3.82-2.2-1.33-4.79-1.33h-11.74v21.89h11.74zm34.92 13.53h20.52l-.5 7.49h-27.8v-50.4h7.78v42.91zm51.7 8.21q-7.06 0-13.04-3.46-5.97-3.45-9.46-9.43-3.5-5.97-3.5-13.03t3.5-13.03q3.49-5.98 9.46-9.43 5.98-3.46 13.04-3.46 7.05 0 13.03 3.46 5.97 3.45 9.47 9.43 3.49 5.97 3.49 13.03t-3.49 13.03q-3.5 5.98-9.47 9.43-5.98 3.46-13.03 3.46zm0-7.49q5.11 0 9.21-2.41 4.11-2.41 6.41-6.59 2.3-4.17 2.3-9.43t-2.3-9.43q-2.3-4.18-6.41-6.59-4.1-2.41-9.21-2.41-5.12 0-9.22 2.41t-6.41 6.59q-2.3 4.17-2.3 9.43t2.3 9.43q2.31 4.18 6.41 6.59t9.22 2.41zm54.86-44.35q5.83 0 11.23 3.82l-3.81 5.9q-2.02-1.22-3.78-1.76-1.77-.54-3.71-.54-5.55 0-8.57 4.46t-3.02 12.6V0h-7.71v-50.4h7.71v5.04q4.32-5.76 11.66-5.76zm63.5 25.92v2.3h-39.52q.64 7.2 5.04 11.7 4.39 4.5 12.45 4.5 4.47 0 8.35-1.87 3.89-1.87 6.48-4.82l4.97 4.97q-3.31 3.88-8.35 6.51T1251.07.72q-8.06 0-13.79-3.42-5.72-3.42-8.67-9.29t-2.95-13.21q0-7.13 3.27-13.07 3.28-5.94 8.89-9.39 5.62-3.46 12.32-3.46 6.98 0 12.2 3.42t7.99 9.32q2.77 5.91 2.77 13.18zm-22.96-18.5q-5.69 0-10.12 3.81-4.43 3.82-5.94 9.72h30.96q-1.15-6.12-5.04-9.83-3.89-3.7-9.86-3.7zm51.84-7.42q5.83 0 11.23 3.82l-3.82 5.9q-2.01-1.22-3.78-1.76-1.76-.54-3.71-.54-5.54 0-8.56 4.46-3.03 4.46-3.03 12.6V0h-7.7v-50.4h7.7v5.04q4.32-5.76 11.67-5.76z"
	  transform="translate(0 -150) translate(0 25.92) translate(192.64 239.28)"
	/>
</svg>