<?xml version="1.0" encoding="UTF-8"?>
<svg class="" height="100" version="1.1" viewBox="0 0 115 70" xml:space="preserve" xmlns="http://www.w3.org/2000/svg">
	<!-- <rect width="100%" height="100%" fill="#001909"/> -->
	<g class="containerBody" transform="scale(1)">
			<g class="sampleIconBox" transform="scale(1) translate(10 40)">
				<g class="sampleIcons_1" transform="scale(1) translate(0)" fill="#ffffd9">
					<path d="m23.34-14.1q0 3.06-2.18 5.28-2.21 2.18-5.27 2.18v6.64q5.84 0 9.95-4.15 4.15-4.11 4.15-9.95 0-5.87-4.15-9.98-4.11-4.15-9.95-4.15-5.87 0-9.98 4.15-4.15 4.11-4.15 9.98v34.03h6.64v-34.03q0-3.09 2.18-5.31 2.22-2.18 5.31-2.18 3.06 0 5.27 2.18 2.18 2.22 2.18 5.31zm16.81 14.1v-14.13q0-3.06 2.18-5.28 2.21-2.18 5.31-2.18 3.06 0 5.27 2.18 2.18 2.22 2.18 5.28v14.13h6.64v-14.13q0-5.84-4.14-9.95-4.12-4.15-9.95-4.15-5.87 0-9.99 4.15-4.15 4.11-4.15 9.95v14.13h6.65zm39.23-28.23q-5.87 0-9.98 4.15-4.15 4.11-4.15 9.95 0 5.62 3.87 9.7 3.86 4.08 9.42 4.39v0.04h0.84v-6.64q-3.09 0-5.31-2.18-2.18-2.22-2.18-5.31 0-3.06 2.18-5.28 2.22-2.18 5.31-2.18 4.61 0 6.68 4.15h-5.87v6.65h13.29v-3.34q0-5.84-4.15-9.95-4.11-4.15-9.95-4.15z"/>
				</g>
			</g>
		</g>
</svg>
